<svg id="Layer_1" data-name="Layer 1" xmlns="http://www.w3.org/2000/svg" viewBox="0 0 502.96 130.58"><defs><style>.cls-1{fill:#fff;}.cls-2{fill:#fefefe;}.cls-3{stroke:#e52521;stroke-miterlimit:10;stroke-width:3px;}</style></defs><title>bergisLogo</title><path id="B" d="M0-.32l.91,130,60,0s31.88-2.37,35.18-36.3A31.42,31.42,0,0,0,94.77,81C93,75.49,89.86,67.27,85,61.74c0,0,9-18,9-28s-9.07-34-36-34Z" transform="translate(0 0.57)"/><path id="B_hål" data-name="B hål" class="cls-1" d="M27.29,25.19,28,51.7l27.16-.22a8.58,8.58,0,0,0,4.37-1.21,14.1,14.1,0,0,0,7.07-13.35c-.58-11.2-9.49-11.54-9.49-11.54Z" transform="translate(0 0.57)"/><path id="B_hål-2" data-name="B hål" class="cls-1" d="M27.25,77.19l.67,26.51,27.16-.22a8.59,8.59,0,0,0,4.37-1.21,14.1,14.1,0,0,0,7.07-13.35C65.94,77.73,57,77.39,57,77.39Z" transform="translate(0 0.57)"/><polygon id="E" points="100.44 0.32 181 0 180.98 25.38 129.98 25.34 129.96 51.34 172.96 51.37 172.94 77.37 129.94 77.34 129.85 104.85 182.59 104.89 182.91 130.38 99.91 130.32 100.44 0.32"/><path id="R" d="M189-.18l-.09,130,27,0,1-38,28.1-.28s10.58.3,10.74,10.3.14,28,.14,28l27.13-.05-.32-38.23a17,17,0,0,0-4.07-11.1,13.08,13.08,0,0,0-8.7-4.6,48.72,48.72,0,0,0,11.4-34.68C280,19.88,266-.13,239-.15Z" transform="translate(0 0.57)"/><path id="R_hål" data-name="R hål" class="cls-2" d="M216,62.84l0-38h18a23.64,23.64,0,0,1,10.7,2.46c4.5,2.28,9.29,6.59,9.29,14.56,0,13-9,19-16,20S216,62.84,216,62.84Z" transform="translate(0 0.57)"/><path id="G" d="M378,5s-12-5-31-5c0,0-64-1-64,65s60,65,64,65,25-1,33-8l0-56-29,0,1,37s-40,1-40-38,33-39,36-39,22,0,30,7Z" transform="translate(0 0.57)"/><rect id="I" x="385.95" y="0.53" width="26" height="130"/><path id="S" d="M498,0,446.41,0a34.38,34.38,0,0,0-16.9,4.27C422.44,8.25,415,15.8,415,30c0,27,23,37,52,58a11.08,11.08,0,0,1,5,9c0,6-3,6-5,7s-50,0-50,0l0,26,47.8,0c9.39,0,18.61-1.91,26-7.66,6.91-5.37,12.19-13.71,12.2-26.31,0,0,1-15-9-23s-45-31-45-31-5-4-3-9,8-6,8-6l44-1Z" transform="translate(0 0.57)"/><path class="cls-3" d="M517.95,243" transform="translate(0 0.57)"/><path class="cls-3" d="M-14.16,242.8" transform="translate(0 0.57)"/></svg>