<?xml version="1.0" encoding="utf-8"?>
<!-- Generator: Adobe Illustrator 21.1.0, SVG Export Plug-In . SVG Version: 6.00 Build 0)  -->
<svg version="1.1" id="Layer_1" xmlns="http://www.w3.org/2000/svg" xmlns:xlink="http://www.w3.org/1999/xlink" x="0px" y="0px"
	 viewBox="0 0 503 130.6" style="enable-background:new 0 0 503 130.6;" xml:space="preserve">
<style type="text/css">
	.st0{fill:#FFFFFF;}
	.st1{stroke:#E52521;stroke-width:3;stroke-miterlimit:10;}
	.st2{fill:#FFFFFF;stroke:#E52521;stroke-width:3;stroke-miterlimit:10;}
</style>
<title>bergisLogo</title>
<path class="st0" d="M94.7,81.6C93,76.1,89.8,67.8,85,62.3c0,0,9-18,9-28s-9.1-34-36-34L0,0.3l0.9,130h60c0,0,31.9-2.4,35.2-36.3
	C96.4,89.8,96,85.6,94.7,81.6z M59.4,102.8c-1.3,0.8-2.8,1.2-4.4,1.2l-27.2,0.2l-0.7-26.5L57,78c0,0,8.9,0.3,9.5,11.5
	C66.9,94.9,64.2,100.1,59.4,102.8z M59.5,50.8c-1.3,0.8-2.8,1.2-4.4,1.2L28,52.3l-0.7-26.5L57.1,26c0,0,8.9,0.3,9.5,11.5
	C67,42.9,64.2,48.1,59.5,50.8z"/>
<polygon id="E" class="st0" points="100.4,0.3 181,0 180.9,25.4 129.9,25.3 129.9,51.3 172.9,51.4 172.9,77.4 129.9,77.3 
	129.8,104.9 182.6,104.9 182.9,130.4 99.9,130.3 "/>
<path class="st0" d="M283,130.4l-0.3-38.2c0-4.1-1.4-8-4.1-11.1c-2.2-2.6-5.3-4.3-8.7-4.6c8.2-9.6,12.2-22.1,11.4-34.7
	C280,20.5,266,0.4,239,0.4l-50,0l-0.1,130h27l1-38l28.1-0.3c0,0,10.6,0.3,10.7,10.3c0.2,10,0.1,28,0.1,28L283,130.4z M238,62.4
	c-7,1-22,1-22,1v-38h18c3.7,0,7.4,0.8,10.7,2.5c4.5,2.3,9.3,6.6,9.3,14.6C254,55.4,245,61.4,238,62.4z"/>
<path id="G" class="st0" d="M378,5.6c0,0-12-5-31-5c0,0-64-1-64,65s60,65,64,65s25-1,33-8v-56h-29l1,37c0,0-40,1-40-38s33-39,36-39
	s22,0,30,7V5.6z"/>
<rect id="I" x="385.9" y="0.5" class="st0" width="26" height="130"/>
<path id="S" class="st0" d="M498,0.6h-51.6c-5.9-0.1-11.7,1.4-16.9,4.3c-7.1,4-14.5,11.5-14.5,25.7c0,27,23,37,52,58
	c3,2,4.9,5.4,5,9c0,6-3,6-5,7s-50,0-50,0v26h47.8c9.4,0,18.6-1.9,26-7.7c6.9-5.4,12.2-13.7,12.2-26.3c0,0,1-15-9-23s-45-31-45-31
	s-5-4-3-9s8-6,8-6l44-1V0.6z"/>
<path class="st1" d="M518,243.6"/>
<path class="st2" d="M268,74.2"/>
</svg>
